<svg width="1600" height="900" viewBox="0 0 1600 900" fill="none" xmlns="http://www.w3.org/2000/svg">
<rect width="1601" height="899.726" fill="#67C8FF"/>
<path d="M213.815 293.326L172.951 266.81C178.18 264.036 182.938 261.497 187.712 258.983C191.863 256.787 196.046 254.667 200.165 252.421C201.977 251.432 202.791 251.491 203.438 253.921C206.679 266.098 210.151 278.224 213.512 290.334C213.676 291.323 213.778 292.323 213.815 293.326V293.326Z" fill="#FDFDFD"/>
<path d="M375.179 372.487L465.672 369.496C465.728 369.68 465.791 369.864 465.855 370.049C463.716 371.004 461.585 371.968 459.469 372.915C441.487 380.792 423.499 388.681 405.506 396.581C403.845 397.31 402.568 397.763 400.9 396.212C392.917 388.812 384.854 381.58 376.816 374.289C376.424 373.971 376.129 373.56 375.179 372.487Z" fill="#FDFDFD"/>
<path d="M516.083 312.458C515.891 307.606 515.644 302.754 515.372 296.77L621.104 391.201C618.175 391.435 616.131 391.67 614.079 391.754C583.689 393.003 553.291 394.184 522.9 395.567C519.875 395.701 519.172 394.955 519.068 391.846C518.182 365.381 517.113 338.966 516.083 312.458Z" fill="#FDFDFD"/>
<path d="M768.817 400.981C760.555 395.953 752.325 390.924 743.272 385.402L780.089 375.228C777.087 384.119 774.286 392.341 771.547 400.587C770.853 402.766 769.719 401.509 768.817 400.981Z" fill="#FDFDFD"/>
<path d="M762.128 482.053L824.17 425.904C826.756 434.285 829.183 442.246 831.618 450.166C836.344 465.535 841.014 480.93 845.859 496.258C846.897 499.526 846.482 500.591 843.073 499.87C816.288 494.166 789.493 488.495 762.687 482.858C762.599 482.841 762.543 482.665 762.128 482.053Z" fill="#FDFDFD"/>
<path d="M860.061 471.175C863.9 464.773 867.748 458.37 872.242 450.895C873.935 460.951 875.435 469.734 877.032 479.262L860.747 473.052C859.813 472.709 859.51 472.097 860.061 471.175Z" fill="#FDFDFD"/>
<path d="M945.157 386.03C951.399 378.261 957.522 370.375 963.701 362.565C964.095 362.231 964.526 361.95 964.986 361.727L980.632 409.495L959.214 397.05C954.808 394.486 950.433 391.871 945.987 389.374C944.43 388.486 943.704 387.84 945.157 386.03Z" fill="#FDFDFD"/>
<path d="M998.713 356.833L998.617 356.07L1135.17 278.392C1135.17 283.73 1135.27 288.499 1135.17 293.267C1134.77 310.129 1134.1 326.99 1133.97 343.86C1133.97 348.05 1132.54 348.888 1129.09 349.072C1115.68 349.776 1102.3 350.698 1088.9 351.52C1059.86 353.296 1030.82 355.064 1001.77 356.824C1000.74 356.883 999.727 356.833 998.713 356.833Z" fill="#FDFDFD"/>
<path d="M1250.73 350.212L1208.64 322.766L1252.71 305.746C1252.05 320.747 1251.42 335.044 1250.73 350.212Z" fill="#FDFDFD"/>
<path d="M1311.49 341.706C1315.56 324.04 1319.25 306.282 1323.29 287.552C1339.18 311.796 1354.55 335.27 1370.57 359.741C1364.13 358.249 1358.75 357.034 1353.39 355.768C1340.45 352.71 1327.52 349.592 1314.58 346.592C1311.87 345.963 1310.68 345.243 1311.49 341.706Z" fill="#FDFDFD"/>
<path d="M1450.93 191.696C1449.92 190.33 1450.46 189.71 1451.79 189.417L1484.31 182.193C1484.64 182.587 1484.97 182.972 1485.29 183.366C1477.97 190.786 1470.66 198.211 1463.35 205.642C1462.5 206.48 1461.81 206.58 1461.08 205.574C1457.7 200.948 1454.33 196.306 1450.93 191.696Z" fill="#FDFDFD"/>
<path d="M1638.14 98.833C1634.67 96.9809 1637.21 93.7377 1636.44 91.542C1630.06 98.5145 1622.58 104.775 1615.56 111.487C1606.16 120.482 1596.69 129.422 1587.17 138.305C1575.09 149.593 1563.13 161.024 1551.04 172.313C1542.12 180.637 1533.25 189.018 1524.44 197.454C1518.49 203.094 1512.56 208.734 1506.53 214.282L1505.67 215.078L1505.46 215.271C1500.07 220.885 1495.83 227.506 1491.14 233.708C1469.88 261.927 1448.66 290.166 1427.47 318.425C1415.23 334.75 1402.98 351.061 1390.71 367.359C1381.48 379.661 1372.27 391.989 1362.95 404.232L1362.5 404.819L1362.3 405.087C1361.83 405.522 1361.29 405.853 1360.7 406.059L1360.46 406.143L1360.11 406.235C1354.48 406.294 1349.09 404.559 1343.63 403.503C1287.95 392.609 1232.24 381.848 1176.56 370.878C1170.18 369.613 1163.79 368.322 1157.35 367.124C1155 366.619 1152.56 367.021 1150.48 368.255C1130.23 379.711 1109.86 390.882 1089.56 402.246C1068.47 414.012 1047.38 425.773 1026.29 437.528L1026.17 437.595L1026.03 437.687L1025.96 437.737L1025.6 437.98C1024.39 438.755 1023.26 439.66 1022.22 440.679V440.679L1020.55 442.062C986.326 470.312 951.944 498.353 917.746 526.628C914.768 529.092 911.831 530.257 907.879 529.712C885.759 526.62 863.615 523.679 841.471 520.745C815.245 517.27 789.021 513.759 762.8 510.211C755.863 509.289 748.863 508.828 742.045 507.219L741.175 507.01L740.768 506.909C732.65 501.202 725.401 494.456 717.834 488.137C690.524 465.334 663.447 442.229 636.146 419.418C634.974 418.417 633.736 417.504 632.442 416.686L632.226 416.543C631.971 416.543 631.707 416.543 631.428 416.543C623.956 416.677 616.684 418.471 609.348 419.627C549.503 429.08 489.662 438.556 429.823 448.054C428.49 448.3 427.134 448.376 425.784 448.28H425.465L424.962 448.137C421.553 447.098 419.374 444.14 416.827 441.86C409.874 435.651 402.993 429.349 396.072 423.08L395.833 422.896C395.737 422.82 395.649 422.753 395.561 422.669C394.596 421.89 393.676 421.05 392.807 420.155L392.663 420.013L392.544 419.904C384.018 412.035 375.381 404.316 366.799 396.506C355.985 386.639 345.155 376.795 334.309 366.973C323.251 356.972 312.226 346.935 301.237 336.862C300.075 335.926 299.006 334.87 298.044 333.711C296.958 332.219 295.705 331.968 294.332 332.873C294.22 332.943 294.113 333.021 294.012 333.108L293.924 333.175C274.542 350.698 255.44 368.557 236.225 386.273C219.461 401.702 202.697 417.013 186.133 432.659C181.599 436.941 176.905 441.039 172.371 445.313C171.148 446.596 169.647 447.548 167.996 448.087V448.087C167.629 448.129 167.262 448.154 166.895 448.171C162.576 448.372 158.385 447.232 154.178 446.554C140.009 444.274 125.807 442.154 111.654 439.757C109.714 439.43 107.662 439.413 106.066 437.947C118.04 439.757 129.942 441.659 141.901 443.352C150.961 444.643 159.894 446.897 169.082 447.14C193.717 424.379 218.349 401.612 242.978 378.84C255.926 366.856 268.795 354.771 281.751 342.804C285.606 339.242 289.646 335.89 293.597 332.437C294.866 329.588 297.445 331.222 298.187 331.985C316.125 350.38 335.938 366.537 354.657 383.994C367.43 395.936 380.45 407.652 393.358 419.476C394.599 420.137 395.676 421.093 396.503 422.267L424.443 447.459C443.857 444.458 463.271 441.5 482.677 438.458C513.874 433.564 545.07 428.636 576.267 423.675C594.095 420.881 611.923 418.057 629.752 415.202C631.173 414.976 632.649 414.314 633.623 416.107C656.342 435.181 679.056 454.252 701.764 473.321C714.728 484.221 727.671 495.143 740.592 506.088C777.978 511.06 815.367 516.024 852.758 520.98C871.717 523.494 890.676 526.008 909.612 528.724C912.198 529.092 913.842 528.271 915.686 526.763C949.661 498.828 983.657 470.907 1017.67 443C1019.13 441.81 1020.67 440.738 1022.17 439.606C1022.97 438.468 1024.06 437.583 1025.31 437.05C1040.16 428.67 1054.99 420.312 1069.83 411.976C1096.76 396.891 1123.7 381.843 1150.65 366.831C1152.59 365.685 1154.86 365.33 1157.04 365.833C1192.32 372.823 1227.62 379.748 1262.92 386.608C1293.41 392.558 1323.9 398.5 1354.38 404.434C1356.46 404.836 1358.55 405.146 1360.65 405.498L1361.94 404.425C1369.92 393.648 1377.83 382.829 1385.89 372.11C1424.27 320.973 1462.68 269.852 1501.12 218.748C1502.26 217.232 1503.26 215.53 1504.97 214.558C1524.78 195.831 1544.59 177.095 1564.41 158.351C1588.47 135.631 1612.56 112.929 1636.86 90C1638.24 92.9751 1636.23 96.2853 1638.14 98.833Z" fill="#FDFDFD"/>
<path d="M438.882 742.843C434.148 768.404 429.582 793.964 424.944 819.575C424.753 820.304 424.527 821.023 424.265 821.728L335.034 764.582L370.892 755.841C392.597 750.553 414.311 745.316 435.992 739.919C439.121 739.106 439.488 739.642 438.882 742.843Z" fill="#FEFEFE"/>
<path d="M537.756 818.443C533.717 823.589 529.685 828.734 525.542 833.788C524.808 834.685 523.595 837.056 522.405 834.333C518.414 825.265 514.694 816.113 510.591 806.342C519.292 808.018 527.355 809.392 535.297 811.043C542.338 812.46 542.33 812.627 537.756 818.443Z" fill="#FEFEFE"/>
<path d="M613.513 752.883L635.864 763.728L618.35 776.298C616.73 768.463 615.197 761.046 613.513 752.883Z" fill="#FEFEFE"/>
<path d="M727.059 799.453C720.298 822.164 713.648 844.917 706.959 867.653C706.704 868.2 706.408 868.724 706.073 869.22C701.81 836.989 697.635 805.37 693.356 773.013C700.174 777.79 706.456 782.173 712.714 786.581C717.017 789.615 721.288 792.69 725.583 795.732C726.86 796.646 727.642 797.467 727.059 799.453Z" fill="#FEFEFE"/>
<path d="M886.276 795.908C886.372 795.908 886.507 796.026 886.883 796.244C883.838 802.222 880.797 808.205 877.758 814.194C870.574 828.441 863.277 842.688 856.125 856.935C854.888 859.407 854.241 859.725 852.557 857.219C843.241 843.325 833.797 829.564 824.353 815.728C823.276 814.161 822.485 813.063 825.088 812.376C845.492 806.917 865.888 801.428 886.276 795.908Z" fill="#FEFEFE"/>
<path d="M1010.06 766.242C1003.02 784.109 996.127 802.034 989.174 819.943C989.086 820.161 988.807 820.304 988.192 820.873C973.743 796.57 959.454 772.552 944.702 747.838L988.431 758.322L1008.2 763.032C1009.89 763.426 1011.03 763.786 1010.06 766.242Z" fill="#FEFEFE"/>
<path d="M1052.76 799.663C1059.82 798.825 1066.84 797.618 1074.73 796.42C1070.18 804.758 1065.89 812.569 1061.22 821.108C1057.47 814.655 1054.15 808.973 1050.84 803.275C1049.56 800.953 1049.95 799.99 1052.76 799.663Z" fill="#FEFEFE"/>
<path d="M1157.43 780.329L1246.28 752.85C1243.51 761.138 1240.97 768.772 1238.36 776.466C1233.17 791.793 1227.9 807.104 1222.76 822.449C1221.96 824.712 1221.58 825.801 1219.09 824.041C1199.14 809.962 1179.13 796.017 1159.14 782.022C1158.54 781.496 1157.96 780.931 1157.43 780.329V780.329Z" fill="#FEFEFE"/>
<path d="M1303.1 752.582C1311.31 766.334 1319.12 779.399 1327.36 793.218L1291.11 790.57C1295.12 777.857 1298.99 765.63 1303.1 752.582Z" fill="#FEFEFE"/>
<path d="M1448.25 838.565C1453.23 844.339 1458.14 850.163 1463.8 856.842L1427.61 854.244C1434.05 848.269 1439.79 842.989 1445.46 837.651C1447.01 836.193 1447.58 837.777 1448.25 838.565Z" fill="#FEFEFE"/>
<path d="M860.186 685.783L810.343 798.429L555.591 574.171L860.186 685.783Z" fill="#EE3A2F"/>
<path d="M1638.14 503.297V668.266C1637.16 670.086 1635.92 671.732 1634.45 673.143C1612.26 696.407 1590.4 720.024 1567.81 742.852C1549.91 760.937 1532.58 779.617 1514.81 797.836C1514.11 798.674 1513.3 799.405 1512.41 800.006C1512.06 800.2 1511.68 800.336 1511.29 800.409L1509.7 799.495C1509.49 799.24 1509.31 798.958 1509.16 798.657C1508.77 797.705 1508.57 796.677 1508.58 795.64V795.64C1508.57 794.772 1508.5 793.906 1508.36 793.051C1508.28 792.632 1508.15 792.226 1507.97 791.844C1506.16 780.949 1505.58 769.962 1504.52 759.009C1502.4 737.522 1500.43 716.009 1498.44 694.48C1496.77 676.445 1495.01 658.444 1493.33 640.384C1491.34 618.88 1489.26 597.384 1487.31 575.855C1486.4 565.874 1485.06 555.935 1484.78 545.895C1484.86 545.506 1484.98 545.129 1485.15 544.772L1485.29 544.504C1485.37 544.412 1485.45 544.32 1485.53 544.244C1485.6 544.179 1485.66 544.12 1485.73 544.068C1486.68 543.23 1487.89 543.079 1489.01 542.694L1491.41 542.04L1494.65 541.202C1519.99 534.313 1545.33 527.439 1570.69 520.578C1591.75 514.862 1612.81 509.122 1633.89 503.498C1635.27 503.071 1636.7 502.543 1638.14 503.297Z" fill="#03A7CA"/>
<path d="M294.705 337.65C294.002 340.767 293.294 343.879 292.581 346.986C292.578 347.036 292.578 347.086 292.581 347.137C290.453 356.422 288.22 365.682 285.884 374.918C285.748 375.471 285.604 376.015 285.469 376.594C280.679 395.55 276.384 414.632 271.754 433.631C266.526 455.06 261.201 476.455 255.996 497.892C255.996 498.018 255.94 498.135 255.9 498.261C254.368 504.563 252.848 510.871 251.342 517.184L250.911 518.994C250.911 519.111 250.855 519.237 250.823 519.354C250.728 520.001 250.586 520.64 250.4 521.265L250.352 521.441C250.257 521.835 250.153 522.22 250.057 522.614C247.167 534.054 244.605 545.568 241.707 556.974C240.286 562.572 239.121 563.352 233.533 562.756L189.228 558.038L185.157 557.619C180.431 557.125 175.706 556.656 170.98 556.144C168.91 555.921 166.842 555.683 164.777 555.432C163.763 555.315 162.742 555.189 161.728 555.055L160.067 554.845C143.303 553.169 126.596 551.284 109.848 549.666C109.11 549.635 108.386 549.443 107.724 549.101C107.061 548.758 106.474 548.275 106 547.68V504.94C107.82 500.817 111.628 498.68 114.653 495.856C126.255 485.022 137.934 474.284 149.69 463.641C154.607 459.174 159.333 454.473 164.282 450.048C165.078 449.327 165.945 448.698 166.869 448.171C167.561 447.775 168.278 447.431 169.016 447.14C193.651 424.379 218.283 401.612 242.912 378.84C255.861 366.856 268.729 354.771 281.685 342.804C285.54 339.242 289.58 335.89 293.531 332.437C293.814 332.545 294.083 332.692 294.329 332.873C296.054 334.088 295.08 336.007 294.705 337.65Z" fill="#D81E44"/>
<path d="M1638.14 185.084V215.254C1637.39 216.863 1636.96 218.606 1635.99 220.131C1614.02 255.103 1592.37 290.301 1570.44 325.314C1569.42 326.931 1568.71 329.01 1566.58 329.504L1566.36 329.554H1566.27C1564.78 329.244 1564.36 327.878 1563.7 326.705C1556.47 314.017 1549.52 301.162 1542.2 288.524C1539.69 284.183 1539.23 283.94 1535.1 286.848C1521.58 296.259 1507.96 305.503 1494.46 314.914C1483.28 322.699 1471.99 330.334 1460.79 338.086C1445.8 348.461 1430.8 358.797 1415.8 369.093C1401.33 378.999 1387.06 389.206 1372.38 398.802C1370.12 400.277 1368.03 402.012 1365.82 403.57C1364.84 404.274 1363.82 405.381 1362.5 404.811C1362.29 404.724 1362.09 404.608 1361.91 404.467C1369.9 393.69 1377.81 382.871 1385.86 372.152C1424.25 321.015 1462.66 269.894 1501.09 218.79C1502.23 217.274 1503.23 215.572 1504.94 214.6L1506.54 214.223C1548.32 204.167 1590.23 194.78 1632.03 184.892C1634.02 184.464 1636.15 183.442 1638.14 185.084Z" fill="#BF3895"/>
<path d="M1638.14 668.266V860.035C1637.41 863.471 1635.67 862.65 1633.43 861.535C1595.74 842.841 1558.03 824.175 1520.31 805.537C1517.22 804.004 1514.01 802.646 1511.27 800.409L1511.9 799.738C1529.28 781.402 1546.45 762.864 1564.37 745.081C1572.48 737.044 1580.21 728.588 1588.1 720.317C1603.69 703.969 1619.28 687.622 1634.88 671.275C1635.9 670.202 1637.05 669.272 1638.14 668.266Z" fill="#297A89"/>
<path d="M1566.46 329.202C1573.65 319.423 1579.58 308.704 1586.06 298.404C1602.77 271.872 1619.21 245.164 1635.77 218.531C1636.49 217.382 1637.37 216.327 1638.16 215.229V457.247C1636.34 457.456 1636.11 455.772 1635.48 454.674C1623 432.81 1610.86 410.736 1598.46 388.821C1591.15 375.412 1583.51 362.205 1576.11 348.846C1572.91 343.072 1569.49 337.432 1566.53 331.532C1566.24 330.761 1565.9 329.982 1566.46 329.202Z" fill="#8C2472"/>
<path d="M106 547.68C112.538 548.518 119.052 549.541 125.614 550.136C136.119 551.091 146.624 552.038 157.082 553.488C158.144 553.571 159.21 553.59 160.275 553.547C163.468 555.709 167.244 555.013 170.716 555.516C189.492 558.24 208.275 560.98 227.083 563.494C229.478 563.813 232.902 563.301 233.581 566.327C234.211 569.176 230.906 570.081 229.038 571.447C203.318 590.253 177.805 609.369 152.236 628.434C138.58 638.585 124.919 648.723 111.253 658.847C109.76 659.936 108.347 661.981 106 660.774V547.68Z" fill="#EC1C49"/>
<path d="M257.074 726.979C257.016 727.188 256.933 727.388 256.826 727.574C235.959 724.568 215.093 721.563 194.226 718.557C169.681 715.037 145.132 711.531 120.577 708.039L106 705.953V669.079C106.91 668.062 108.049 667.301 109.313 666.866C127.593 659.265 145.69 651.212 163.963 643.594C165.184 643.083 166.358 642.412 167.779 642.572L168.433 643.033L168.625 643.167C174.053 647.038 178.595 652.033 183.489 656.575C194.633 666.872 205.755 677.208 216.857 687.583C227.154 697.192 237.447 706.816 247.734 716.453C250.305 718.867 253.226 720.878 255.437 723.694C256.22 724.633 257.505 725.471 257.074 726.979Z" fill="#D81E44"/>
<path d="M1638.14 98.8342V185.085C1630.16 186.108 1622.38 188.438 1614.53 190.223C1583.09 197.396 1551.67 204.659 1520.27 212.012C1516.54 212.883 1512.82 213.808 1509.09 214.786C1507.91 215.096 1506.78 215.515 1505.66 215.071C1505.4 214.965 1505.15 214.824 1504.92 214.652C1524.74 195.924 1544.55 177.188 1564.36 158.444C1588.43 135.725 1612.52 113.022 1636.82 90.0934C1638.24 92.9762 1636.23 96.2865 1638.14 98.8342Z" fill="#8D288E"/>
<path d="M1488.97 543.448C1488.08 544.445 1486.86 544.227 1485.78 544.403C1484.37 543.289 1484.07 541.621 1483.92 539.953C1482.43 521.936 1480.37 503.976 1478.92 485.95C1478.54 481.383 1478.04 476.815 1477.67 472.24C1477.7 471.715 1477.79 471.196 1477.95 470.698C1478.13 470.06 1478.49 469.494 1478.98 469.071C1479.47 468.649 1480.07 468.389 1480.7 468.326C1493.6 468.619 1506.4 466.935 1519.25 466.256C1529.32 465.72 1539.39 464.974 1549.44 464.32C1560.7 463.583 1571.96 462.786 1583.21 462.091C1593.68 461.437 1604.15 460.834 1614.6 460.029C1620.92 459.552 1627.32 460.029 1633.55 458.496C1634.34 458.123 1635.23 458.043 1636.07 458.266C1636.91 458.49 1637.65 459.005 1638.18 459.728V461.404C1635.79 463.918 1632.67 465.326 1629.75 466.893C1610.59 477.176 1591.59 487.769 1572.55 498.294C1547.62 512.055 1522.57 525.556 1497.77 539.576C1494.92 541.054 1491.98 542.347 1488.97 543.448V543.448Z" fill="#C957A0"/>
<path d="M168.266 643.175C153.098 649.611 137.931 656.081 122.684 662.45C117.176 664.755 111.588 666.892 106 669.104V666.59C106.846 664.755 108.395 663.623 109.856 662.467C125.159 650.718 140.597 639.136 155.908 627.386C175.618 612.302 195.487 597.401 215.164 582.249C222.006 576.987 228.943 571.824 235.824 566.62C238.123 564.877 240.254 564.273 242.817 565.556C258.495 572.21 274.205 578.772 289.915 585.384C291.671 586.121 293.906 586.314 294.705 588.644C294.242 590.856 292.31 591.057 290.769 591.703C265.097 602.647 239.448 613.676 213.759 624.587C200.237 630.328 186.794 636.278 173.223 641.901C171.602 642.563 170.054 643.46 168.266 643.175Z" fill="#ED4456"/>
<path d="M1638.15 459.753L1634.16 458.915C1632.31 460.172 1630.33 459.753 1628.36 459.376C1612.4 456.451 1596.48 453.208 1580.53 450.157C1563.41 446.855 1546.3 443.453 1529.18 440.159C1528 439.941 1526.78 439.908 1525.81 439.053C1525.07 436.916 1526.95 436.489 1527.99 435.751C1542 425.862 1556.29 416.476 1570.39 406.721C1578.37 401.218 1586.4 395.751 1594.47 390.321C1595.86 389.382 1597.13 387.865 1599.11 388.511C1605.97 399.028 1611.5 410.375 1617.79 421.253C1624.69 433.195 1631.36 445.263 1638.17 457.289L1638.15 459.753Z" fill="#BF3894"/>
<path d="M1488.97 543.448C1492.97 541.068 1496.96 538.562 1501.04 536.316C1516.21 528.02 1531.43 519.857 1546.55 511.552C1568.63 499.451 1590.69 487.305 1612.72 475.114C1621.14 470.446 1629.43 465.527 1638.12 461.404V503.306C1616.33 509.211 1594.55 515.119 1572.77 521.03C1545.87 528.332 1518.96 535.637 1492.06 542.945C1491.07 543.213 1490.01 543.297 1488.97 543.448Z" fill="#A93794"/>
<path d="M169.016 447.174L168.002 448.112C158.423 456.97 148.844 465.862 139.264 474.678C128.2 484.819 117.112 494.917 106 504.973V437.98C117.974 439.79 129.876 441.693 141.835 443.386C150.895 444.676 159.828 446.931 169.016 447.174Z" fill="#ED4456"/>
<path d="M242.457 566.134C240.007 565.296 238.139 566.092 236.071 567.709C220.106 580.054 204.02 592.222 187.975 604.449C169.349 618.629 150.735 632.803 132.136 646.971C123.434 653.558 114.701 660.062 106 666.64V660.774C113.344 657.128 119.403 651.438 126.021 646.661C141.188 635.725 155.956 624.26 170.972 613.14C191.067 598.25 211.205 583.414 231.385 568.631C232.184 568.078 233.269 567.6 233.11 566.544C232.894 565.103 231.513 565.438 230.515 565.296C218.765 563.62 206.998 562.053 195.263 560.268C185.876 558.843 176.504 557.292 167.172 555.491C164.873 555.047 161.935 556.681 160.267 553.613C170.836 555.189 181.469 555.994 192.094 557.016C203.629 558.122 215.116 559.723 226.636 560.98C229.781 561.323 232.958 561.265 236.087 561.935C238.482 562.455 239.544 561.047 240.079 558.583C242.889 546.616 245.858 534.682 248.796 522.748C249.004 522.119 249.272 521.512 249.594 520.938C252.3 521.885 250.672 524.005 250.392 525.355C248.796 533.534 246.632 541.562 244.804 549.658C244.469 551.124 243.839 552.549 244.086 554.485C249.035 550.521 253.466 546.23 257.944 542.032C268.026 532.604 278.188 523.276 288.279 513.832C289.875 512.332 291.552 510.387 294.202 511.359C295.551 513.103 294.306 514.225 293.228 515.214C282.315 525.187 271.483 535.252 260.546 545.2C255.126 550.119 249.929 555.315 244.373 560.066C243.466 560.719 242.787 561.665 242.441 562.761C242.095 563.857 242.101 565.042 242.457 566.134V566.134Z" fill="#EB1C47"/>
<path d="M1287.72 657.422C1287.7 657.541 1287.68 657.658 1287.64 657.774C1287.59 657.912 1287.53 658.044 1287.45 658.168V658.168C1287.27 658.526 1286.99 658.818 1286.65 659.006C1286.52 659.077 1286.37 659.133 1286.23 659.173H1285.56C1285.15 659.173 1284.76 659.224 1284.34 659.232C1278.32 659.4 1272.53 657.615 1266.67 656.584C1228.28 649.804 1189.92 642.84 1151.54 636.027C1128.88 632.004 1106.25 627.78 1083.56 623.9C1082.12 623.649 1080.66 623.523 1079.21 623.422H1079.04C1078.81 623.41 1078.58 623.41 1078.35 623.422C1077.75 623.422 1077.17 623.515 1076.58 623.523C1075.64 623.758 1074.69 623.992 1073.75 624.244L1071.73 624.772C1060.2 627.847 1048.85 631.602 1037.41 634.996C978.174 652.611 918.971 670.325 859.797 688.136C858.517 688.502 857.216 688.782 855.901 688.974C855.782 688.987 855.662 688.987 855.542 688.974H855.446C855.193 688.94 854.945 688.867 854.712 688.756C854.547 688.595 854.4 688.415 854.273 688.22C854.179 688.073 854.101 687.916 854.041 687.751C853.682 686.695 854.417 685.756 855.095 684.767C889.142 635.18 922.773 585.283 956.596 535.537C977.213 505.211 997.851 474.899 1018.51 444.601C1019.13 443.704 1019.84 442.925 1020.51 442.087C1021.13 441.344 1021.67 440.532 1022.11 439.665C1022.92 438.526 1024 437.642 1025.26 437.109L1025.82 437.352L1025.89 437.486C1025.93 437.553 1025.96 437.628 1025.99 437.695C1026.02 437.738 1026.04 437.783 1026.06 437.83C1029.12 444.023 1030.39 450.869 1032.29 457.465C1040.82 487.098 1049.45 516.698 1057.95 546.297C1064.43 568.857 1071.05 591.376 1077.44 613.969C1078.9 619.148 1078.94 619.207 1083.43 616.249C1134.95 582.241 1186.48 548.258 1238.03 514.301C1241.58 511.954 1244.83 508.929 1249 507.731C1249.12 507.691 1249.24 507.66 1249.36 507.638L1249.84 507.513C1250.94 507.613 1251.89 507.747 1252.08 509.281C1253.58 521.759 1257.51 533.643 1260.48 545.753C1266.62 570.844 1272.88 595.904 1279.25 620.933C1281.9 631.292 1284.34 641.709 1287.05 652.05C1287.52 653.818 1288.13 655.578 1287.72 657.422Z" fill="#15B7D3"/>
<path d="M853.187 686.988L853.139 687.189C853.139 687.231 853.139 687.264 853.139 687.306C851.224 688.982 849.284 687.776 847.496 687.181C827.251 680.367 806.951 673.772 786.667 667.068L661.178 625.811C642.29 619.601 623.395 613.416 604.5 607.097C602.544 606.435 600.509 606.075 598.537 605.589C598.202 605.513 597.874 605.43 597.539 605.337L597.427 605.279C596.996 605.074 596.648 604.714 596.445 604.265C596.444 604.234 596.444 604.203 596.445 604.173C596.401 604.053 596.367 603.929 596.342 603.804C596.023 601.033 596.166 598.226 596.765 595.507C607.861 537.439 619.117 479.413 630.221 421.345C630.5 419.879 630.037 417.515 631.442 416.543C632.091 416.167 632.839 416.023 633.573 416.133C656.292 435.206 679.006 454.277 701.714 473.346C714.678 484.246 727.621 495.168 740.542 506.113C741.066 506.399 741.545 506.766 741.963 507.203C742.816 508.181 743.567 509.252 744.206 510.396C772.306 555.021 799.998 599.915 828.026 644.575C835.769 656.902 843.528 669.221 851.112 681.658C852.142 683.292 853.674 684.767 853.187 686.988Z" fill="#E61D44"/>
<path d="M596.246 604.851C596.189 605.306 596.008 605.734 595.725 606.084C595.441 606.433 595.068 606.689 594.649 606.821C594.522 606.879 594.386 606.93 594.242 606.98L594.035 607.106C586.132 611.857 579.019 617.808 571.555 623.221C549.815 639.032 528.129 654.924 506.496 670.898C502.927 673.537 499.974 673.621 495.887 671.87C474.229 662.592 452.388 653.776 430.563 644.935C429.206 644.39 427.801 643.653 426.325 644.332C425.554 644.778 424.659 644.929 423.794 644.759C423.749 644.75 423.706 644.733 423.666 644.709C422.405 644.197 422.269 642.287 422.03 640.619C420.266 628.484 418.693 616.316 417.001 604.181C413.856 581.696 410.822 559.186 407.773 536.685C402.967 501.063 398.137 465.44 393.284 429.818C392.901 426.977 392.661 424.052 395.583 422.636C395.86 422.501 396.145 422.386 396.437 422.292L424.377 447.484C424.856 447.727 425.319 447.995 425.774 448.28C430.053 450.869 433.421 454.708 437.101 458.06C456.523 475.768 476.089 493.258 495.503 511.016C514.13 528.006 532.78 544.954 551.455 561.86C564.091 573.324 576.6 584.965 589.445 596.22C592.125 598.555 594.364 601.398 596.046 604.6C596.142 604.625 596.198 604.751 596.246 604.851Z" fill="#EB1C47"/>
<path d="M552.86 683.594C551.646 685.739 549.427 688.019 549.706 690.139C550.034 692.703 553.546 692.293 555.558 693.441C556.3 693.86 557.21 694.128 557.513 695.016C557.581 695.224 557.614 695.442 557.609 695.662C551.04 697.046 544.392 697.989 537.708 698.486C537.591 698.147 537.498 697.8 537.429 697.447C536.854 694.413 539.6 694.715 541.668 694.094C536.351 691.823 531.21 689.217 525.702 687.466C523.188 686.627 520.657 685.672 518.757 683.544C518.197 682.926 517.459 682.52 516.658 682.387C506.152 680.711 496.9 675.239 487.018 671.694C474.189 667.084 461.76 661.444 449.419 655.536C443.536 652.712 437.293 650.6 431.146 648.354C427.69 647.097 425.047 648.689 422.661 651.27C419.231 655.102 415.509 658.633 411.533 661.83C408.651 664.25 405.908 666.847 403.318 669.607C397.73 675.121 391.959 680.367 386.163 685.53C380.248 690.801 374.764 696.575 368.761 701.754C365.235 704.633 361.894 707.751 358.758 711.09C355.813 714.442 352.324 717.216 349.035 720.141C347.325 721.572 345.806 723.238 344.517 725.094C344.278 725.446 344.054 725.806 343.839 726.183C342.106 727.138 340.215 726.895 338.37 727.021C337.436 727.34 336.862 727.298 336.614 726.971C336.367 726.644 336.471 726.041 336.87 725.211C337.702 723.778 338.785 722.524 340.063 721.515C358.886 704.117 377.654 686.661 396.365 669.146C403.592 662.375 410.846 655.637 418.126 648.932C421.256 646.066 421.319 645.815 417.536 644.139C404.231 638.178 390.908 632.241 377.566 626.33C352.268 615.042 326.915 603.896 301.674 592.473C300.764 592.063 299.846 591.702 298.928 591.334L298.337 591.099C297.076 590.42 295.663 590.052 294.601 589.012L294.353 588.753C280.663 582.886 266.957 577.07 253.298 571.154C249.658 569.57 245.754 568.64 242.473 566.125C242.029 565.809 241.628 565.428 241.284 564.994C240.127 563.469 240.853 562.053 242.641 560.427C252.947 551.099 263.157 541.655 273.399 532.252L293.396 513.89C293.696 513.615 293.935 513.275 294.098 512.893C294.261 512.511 294.342 512.096 294.338 511.678C294.31 511.593 294.288 511.506 294.274 511.418C293.946 509.859 295.072 508.904 296.006 508.267C299.415 506.096 301.698 502.619 304.843 500.171C305.21 499.979 305.569 499.786 305.921 499.568C306.99 498.95 307.951 498.145 308.762 497.188V497.188C309.059 496.842 309.326 496.469 309.561 496.073C310.075 495.296 310.738 494.639 311.508 494.146C311.772 494.003 312.027 493.861 312.307 493.71C313.36 493.093 314.31 492.297 315.117 491.355C315.418 490.992 315.685 490.599 315.915 490.182C316.61 489.038 317.59 488.117 318.749 487.517C319.058 487.397 319.357 487.252 319.643 487.081C320.647 486.472 321.528 485.664 322.237 484.701C322.533 484.332 322.812 483.947 323.083 483.545C323.605 482.761 324.273 482.096 325.047 481.592C325.319 481.45 325.59 481.29 325.846 481.131C326.901 480.523 327.85 479.732 328.655 478.793C328.948 478.452 329.215 478.088 329.454 477.704C329.981 476.916 330.654 476.249 331.433 475.743C331.705 475.6 331.96 475.441 332.232 475.29C333.281 474.677 334.228 473.887 335.034 472.952C335.335 472.588 335.602 472.195 335.832 471.779C336.527 470.635 337.507 469.713 338.666 469.114C338.971 468.992 339.268 468.846 339.552 468.678C340.556 468.07 341.44 467.265 342.154 466.306V466.306C342.458 465.937 342.729 465.552 343 465.15C343.523 464.363 344.194 463.699 344.972 463.197C345.244 463.055 345.507 462.895 345.77 462.736C346.824 462.13 347.772 461.339 348.572 460.398C348.871 460.032 349.138 459.64 349.371 459.225C350.064 458.079 351.044 457.157 352.205 456.56C352.513 456.436 352.812 456.287 353.099 456.116C354.102 455.509 354.983 454.704 355.693 453.744C355.988 453.375 356.268 452.981 356.539 452.587C357.059 451.801 357.727 451.137 358.503 450.635C358.774 450.495 359.041 450.344 359.301 450.182C360.356 449.57 361.306 448.777 362.111 447.836C362.408 447.495 362.675 447.128 362.91 446.738C363.432 445.949 364.103 445.282 364.881 444.777L365.68 444.316C366.734 443.704 367.684 442.911 368.489 441.969C368.788 441.607 369.055 441.217 369.288 440.805C369.98 439.661 370.957 438.74 372.114 438.14C372.425 438.017 372.727 437.868 373.016 437.695C374.015 437.09 374.893 436.287 375.602 435.332C375.905 434.955 376.177 434.578 376.448 434.176C376.975 433.388 377.649 432.721 378.428 432.215C378.691 432.072 378.955 431.921 379.226 431.762C380.279 431.157 381.226 430.369 382.028 429.432V429.432C382.34 429.065 382.621 428.67 382.866 428.251C383.558 427.112 384.532 426.193 385.684 425.594V425.594C385.878 425.525 386.067 425.444 386.251 425.351C388.75 424.111 390.027 421.211 392.462 419.895C392.696 419.765 392.939 419.653 393.188 419.56C394.429 420.221 395.506 421.176 396.333 422.351C396.126 422.544 395.926 422.728 395.751 422.921C391.991 426.935 394.681 431.729 395.16 436.011C396.605 448.917 398.585 461.764 400.357 474.628C402.105 487.358 403.885 500.088 405.617 512.818C407.35 525.547 409.018 538.302 410.734 551.032C412.155 561.58 413.589 572.126 415.037 582.668C416.516 593.49 418.004 604.304 419.499 615.109C420.825 624.755 422.142 634.384 423.563 644.767V644.943L423.666 644.818C425.981 642.044 428.009 642.773 430.468 643.795C452.253 652.871 474.197 661.528 495.871 670.881C500.261 672.775 503.055 672.096 506.496 669.54C534.946 648.511 563.439 627.54 591.975 606.628C592.733 606.067 593.356 605.136 594.258 606.368C594.363 606.529 594.451 606.7 594.522 606.879C595.176 608.455 594.019 609.662 593.332 610.894C579.879 635.107 566.388 659.341 552.86 683.594Z" fill="#D81E44"/>
<path d="M1022.18 440.67C1022.01 441.81 1021.02 442.573 1020.43 443.444C1002.34 470.1 984.187 496.738 965.976 523.36C951.91 544.032 937.887 564.729 923.907 585.451C902.832 616.553 881.758 647.653 860.683 678.75C858.584 681.859 855.941 684.574 854.457 688.128L854.265 688.211C853.283 688.614 853.307 687.792 853.163 687.189C853.132 687.04 853.069 686.899 852.98 686.778C841.053 667.548 829.119 648.318 817.177 629.088C791.834 588.381 766.476 547.683 741.101 506.993L740.55 506.113C777.936 511.086 815.325 516.05 852.716 521.005C871.675 523.519 890.634 526.033 909.57 528.749C912.156 529.117 913.8 528.296 915.644 526.788C949.619 498.853 983.615 470.932 1017.63 443.025C1019.09 441.835 1020.63 440.763 1022.13 439.631C1022.22 439.968 1022.24 440.324 1022.18 440.67V440.67Z" fill="#18AAB5"/>
<path d="M633.581 416.133C633.366 416.137 633.155 416.186 632.958 416.279C632.762 416.371 632.586 416.503 632.44 416.669C632.103 417.2 631.897 417.81 631.841 418.446C626.301 447.777 620.713 477.109 615.077 506.44C609.928 533.299 604.7 560.142 599.575 587.001C598.505 592.599 597.683 598.256 596.749 603.879C596.671 604.031 596.571 604.17 596.453 604.29C596.342 604.416 596.206 604.516 596.054 604.583C596.016 604.616 595.973 604.642 595.927 604.659C590.908 599.099 585.554 593.884 579.897 589.046C568.721 579.107 557.601 569.017 546.505 558.952C537.9 551.141 529.366 543.238 520.761 535.436C509.657 525.38 498.497 515.374 487.393 505.267C478.883 497.557 470.445 489.763 461.944 482.045C450.768 471.879 439.488 461.781 428.288 451.615C427.099 450.534 426.037 449.294 424.944 448.096L424.369 447.475C443.783 444.475 463.197 441.517 482.603 438.475C513.8 433.581 544.997 428.653 576.193 423.692C594.021 420.898 611.85 418.074 629.678 415.219C631.131 415.001 632.607 414.339 633.581 416.133Z" fill="#ED4456"/>
<path d="M1567.13 330.811C1566.95 331.113 1566.77 331.415 1566.58 331.717C1559.23 343.701 1551.83 355.643 1544.37 367.543C1531 388.955 1517.8 410.484 1504.35 431.846C1504.11 432.236 1503.89 432.642 1503.7 433.061L1503.5 433.455C1503.5 433.53 1503.43 433.606 1503.39 433.681C1503.19 433.911 1502.94 434.093 1502.67 434.217C1502.39 434.341 1502.09 434.404 1501.8 434.402H1501.39H1501.07C1488.46 432.315 1475.96 429.692 1463.42 427.228C1431.03 420.859 1398.62 414.658 1366.24 408.221C1364.42 407.861 1362.54 407.668 1360.86 406.738C1360.72 406.658 1360.61 406.547 1360.52 406.411C1360.49 406.353 1360.46 406.291 1360.44 406.227C1360.44 406.202 1360.44 406.176 1360.44 406.152C1360.43 405.936 1360.5 405.723 1360.63 405.556L1361.92 404.484C1362.27 404.431 1362.62 404.35 1362.96 404.241C1365.35 403.403 1366.95 401.333 1368.93 399.975C1384.18 389.695 1399.39 379.343 1414.56 368.917C1427.39 360.076 1440.06 350.983 1452.88 342.159C1474.13 327.551 1495.51 313.162 1516.74 298.497C1523.25 293.988 1529.63 289.278 1536.19 284.795C1539.14 282.783 1540.46 283.47 1542.05 286.345C1549.52 299.754 1557.12 313.162 1564.68 326.571C1565.2 327.51 1565.86 328.373 1566.45 329.278C1566.45 329.378 1566.53 329.479 1566.58 329.58C1566.77 329.94 1566.94 330.376 1567.13 330.811Z" fill="#A14198"/>
<path d="M1360.68 406.076C1360.64 406.182 1360.58 406.283 1360.52 406.378C1360.28 406.761 1359.95 407.068 1359.56 407.262C1359.16 407.456 1358.73 407.53 1358.3 407.476H1358.06L1356.61 407.61C1340.92 409.135 1325.22 410.551 1309.51 412.009C1292.75 413.568 1275.94 415.16 1259.14 416.677C1243.15 418.119 1227.15 419.616 1211.16 421.169C1197.68 422.46 1184.18 423.633 1170.71 424.966C1154.06 426.608 1137.4 428.164 1120.74 429.633C1106.98 430.882 1093.25 432.231 1079.49 433.447C1066.13 434.628 1052.76 435.76 1039.43 437.26C1036.84 437.553 1034.15 437.084 1031.59 437.796C1031.07 437.935 1030.56 438.129 1030.08 438.374H1030.02C1028.52 439.078 1027.28 438.492 1026.03 437.746C1025.98 437.724 1025.93 437.696 1025.89 437.662L1025.36 437.335L1025.22 437.025C1040.07 428.645 1054.9 420.286 1069.74 411.951C1096.67 396.866 1123.61 381.818 1150.56 366.805C1152.5 365.66 1154.77 365.305 1156.95 365.808C1192.23 372.797 1227.53 379.722 1262.83 386.583C1293.32 392.533 1323.81 398.475 1354.29 404.408C1356.37 404.811 1358.46 405.121 1360.56 405.473C1360.56 405.64 1360.6 405.816 1360.61 405.984C1360.62 405.984 1360.63 405.986 1360.64 405.991C1360.65 405.996 1360.66 406.003 1360.67 406.012C1360.68 406.02 1360.68 406.031 1360.68 406.042C1360.69 406.053 1360.69 406.065 1360.68 406.076V406.076Z" fill="#3AC5ED"/>
<path d="M621.104 391.201C618.175 391.435 616.131 391.67 614.079 391.754C583.689 393.003 553.291 394.184 522.9 395.567C519.875 395.701 519.172 394.955 519.068 391.846C518.182 365.381 517.113 338.924 516.083 312.458C515.891 307.606 515.644 302.754 515.372 296.77L621.104 391.201Z" fill="#EE4137"/>
<path d="M1135.15 293.267C1134.75 310.129 1134.08 326.99 1133.95 343.86C1133.95 348.05 1132.51 348.888 1129.06 349.072C1115.66 349.776 1102.27 350.698 1088.88 351.52C1059.84 353.296 1030.79 355.064 1001.75 356.824C1000.74 356.883 999.727 356.824 998.713 356.824L998.617 356.062L1135.17 278.384C1135.17 283.73 1135.27 288.499 1135.15 293.267Z" fill="#1382B5"/>
<path d="M843.073 499.87C816.288 494.166 789.493 488.495 762.687 482.858C762.599 482.858 762.543 482.665 762.128 482.02L824.17 425.871C826.756 434.251 829.183 442.212 831.618 450.132C836.344 465.502 841.014 480.897 845.859 496.224C846.897 499.509 846.482 500.574 843.073 499.87Z" fill="#3AC5ED"/>
<path d="M1370.57 359.741C1364.13 358.249 1358.75 357.034 1353.39 355.768C1340.45 352.71 1327.52 349.592 1314.58 346.592C1311.87 345.963 1310.68 345.243 1311.49 341.706C1315.56 324.04 1319.25 306.282 1323.29 287.552C1339.18 311.796 1354.55 335.27 1370.57 359.741Z" fill="#BF3995"/>
<path d="M465.855 370.057C463.716 371.012 461.585 371.976 459.469 372.923C441.487 380.801 423.499 388.69 405.506 396.589C403.845 397.319 402.568 397.771 400.9 396.221C392.917 388.821 384.854 381.589 376.815 374.298C376.456 373.971 376.161 373.56 375.219 372.496L465.712 369.504C465.728 369.688 465.791 369.873 465.855 370.057Z" fill="#D81E44"/>
<path d="M1252.72 305.746C1252.05 320.747 1251.42 335.077 1250.75 350.212L1208.65 322.766L1252.72 305.746Z" fill="#3AC5ED"/>
<path d="M213.815 293.326L172.951 266.81C178.18 264.036 182.938 261.497 187.712 258.983C191.863 256.787 196.046 254.667 200.165 252.421C201.977 251.432 202.791 251.491 203.438 253.921C206.679 266.098 210.151 278.224 213.512 290.334C213.676 291.323 213.778 292.323 213.815 293.326V293.326Z" fill="#96E0F5"/>
<path d="M980.632 409.479L959.214 397.034C954.808 394.469 950.433 391.855 945.987 389.357C944.39 388.519 943.704 387.84 945.189 386.005C951.431 378.236 957.554 370.35 963.733 362.54C964.127 362.206 964.558 361.925 965.018 361.702L980.632 409.479Z" fill="#3AC5ED"/>
<path d="M393.292 419.502C393.132 419.694 392.981 419.887 392.829 420.088C390.905 422.518 389.205 425.209 386.091 426.256C385.944 426.041 385.836 425.8 385.772 425.544C385.493 424.446 386.419 423.742 387.129 423.13C389.811 420.842 388.981 419.082 386.714 417.105C375.163 407.048 363.907 396.598 352.54 386.315C340.382 375.312 327.921 364.694 316.13 353.212C310.543 347.807 304.555 342.971 298.712 337.91C297.219 336.619 296.373 337.03 295.758 338.748C295.462 339.673 295.216 340.616 295.024 341.572C286.937 375.261 278.723 408.917 270.605 442.598C264.804 466.672 258.849 490.696 252.739 514.67C252.356 516.161 252.5 518.256 250.879 518.952C250.485 519.114 250.065 519.196 249.642 519.195C256.028 492.735 262.438 466.284 268.872 439.841C277.175 405.587 285.474 371.342 293.771 337.105C294.106 335.739 294.705 334.398 294.018 333.116C293.884 332.871 293.721 332.646 293.531 332.446C294.801 329.596 297.379 331.231 298.121 331.993C316.059 350.388 335.872 366.546 354.591 384.002C367.396 395.953 380.384 407.685 393.292 419.502Z" fill="#EB1C47"/>
<path d="M780.121 375.211C777.119 384.103 774.317 392.324 771.579 400.57C770.853 402.766 769.719 401.509 768.817 400.964C760.555 395.936 752.325 390.908 743.272 385.385L780.121 375.211Z" fill="#F59A94"/>
<path d="M1485.29 183.366C1477.97 190.786 1470.66 198.211 1463.35 205.642C1462.5 206.48 1461.81 206.58 1461.08 205.574C1457.7 200.948 1454.33 196.306 1450.93 191.696C1449.92 190.33 1450.46 189.71 1451.79 189.417L1484.31 182.193C1484.62 182.587 1484.97 182.972 1485.29 183.366Z" fill="#DE9BCA"/>
<path d="M877.024 479.262L860.747 473.052C859.813 472.692 859.51 472.08 860.061 471.158C863.9 464.756 867.748 458.353 872.242 450.878C873.943 460.951 875.419 469.7 877.024 479.262Z" fill="#1C9CB2"/>
<path d="M1509.61 798.733C1509.61 798.984 1509.61 799.244 1509.67 799.495C1468.4 807.172 1426.9 813.331 1385.56 820.513C1384.64 820.622 1383.71 820.673 1382.78 820.664C1382.61 820.441 1382.46 820.2 1382.33 819.943C1381.34 817.94 1382.26 815.829 1382.56 813.834C1386.82 786.464 1390.97 759.076 1395.17 731.706C1403.44 677.781 1411.71 623.85 1419.97 569.913C1420.35 567.483 1420.24 564.885 1421.86 562.773C1422.09 562.744 1422.34 562.744 1422.57 562.773H1422.65C1424.56 562.983 1424.79 565.044 1425.31 566.511C1432.68 586.842 1440.22 607.114 1447.66 627.437C1458.69 657.645 1469.73 687.854 1480.79 718.063C1489.65 742.274 1498.43 766.527 1507.39 790.696C1507.97 792.271 1508 793.939 1508.59 795.598C1508.59 795.598 1508.59 795.556 1508.59 795.54C1508.39 794.618 1508.07 793.746 1508.37 792.95C1508.47 792.623 1508.66 792.332 1508.91 792.112C1510.27 794.232 1509.54 796.537 1509.61 798.733Z" fill="#1AA7AF"/>
<path d="M1423.05 561.566C1423.06 561.619 1423.06 561.673 1423.05 561.726C1423.02 562.082 1422.86 562.413 1422.61 562.656V562.756C1420.69 570.047 1420 577.59 1418.79 585.023C1416.65 598.113 1414.86 611.262 1412.87 624.411C1410.6 639.303 1408.26 654.179 1405.96 669.062C1403.13 687.365 1400.25 705.651 1397.47 723.962C1394.91 740.723 1392.53 757.601 1389.95 774.396C1387.71 789.011 1385.29 803.593 1382.97 818.192C1382.9 818.747 1382.86 819.307 1382.85 819.868C1382.85 820.145 1382.85 820.413 1382.85 820.706C1380.46 822.382 1379.38 820.765 1378.23 818.762C1363.15 792.503 1348.04 766.244 1332.91 739.986C1317.39 713.034 1301.85 686.094 1286.29 659.165L1286.56 658.855L1287.08 658.235C1287.31 657.966 1287.55 657.698 1287.79 657.447C1290.1 655.017 1292.94 653.307 1295.61 651.405C1322.52 632.18 1349.31 612.762 1376.19 593.504C1389.92 583.674 1403.59 573.777 1417.35 564.022C1418.95 562.857 1419.68 559.957 1422.44 560.67L1422.66 560.829C1422.7 560.859 1422.74 560.896 1422.77 560.938C1422.9 561.067 1423 561.228 1423.05 561.407C1423.06 561.46 1423.06 561.513 1423.05 561.566V561.566Z" fill="#57C8E9"/>
<path d="M1285.55 659.148C1274.61 667.403 1263.69 675.699 1252.73 683.912C1247.24 688.01 1241.66 691.966 1236.13 695.988C1220.82 706.791 1205.79 718.037 1190.63 729.091C1187.18 731.605 1183.72 734.119 1180.25 736.633C1162.59 749.313 1145.01 762.093 1127.24 774.605C1126.52 775.246 1125.73 775.808 1124.9 776.281C1124.42 776.482 1123.9 776.543 1123.39 776.457C1123.16 776.415 1122.93 776.347 1122.71 776.256C1122.34 775.915 1122.01 775.53 1121.73 775.108C1120.54 773.348 1120.22 771.161 1119.63 769.133C1106.41 723.392 1093.22 677.638 1080.05 631.87C1079.25 629.171 1077.54 626.473 1078.3 623.489C1078.4 623.091 1078.54 622.703 1078.72 622.333C1086.7 622.492 1094.38 624.604 1102.18 625.92C1118.83 628.736 1135.43 631.887 1152.05 634.87C1163.23 636.881 1174.41 638.834 1185.58 640.837C1200.75 643.561 1215.96 646.351 1231.16 649.058C1248.84 652.201 1266.52 655.268 1284.19 658.402C1284.52 658.493 1284.81 658.662 1285.06 658.897C1285.25 658.93 1285.4 659.048 1285.55 659.148Z" fill="#168DA6"/>
<path d="M808.236 796.353C806.544 797.802 805.235 796.151 803.91 795.615C738.84 769.284 673.777 742.913 608.723 716.504C591.693 709.582 574.663 702.634 557.633 695.662C557.308 695.396 556.964 695.158 556.603 694.949C554.416 693.676 551.814 693.365 549.611 692.184C548.182 691.43 547.463 691.111 548.477 689.301C559.565 669.615 570.669 649.913 581.582 630.144C585.796 622.501 590.522 615.151 594.059 607.106C594.178 606.846 594.298 606.578 594.41 606.268C594.937 605.706 595.464 605.153 596.006 604.592L596.118 604.483L596.493 604.131L596.829 603.812L597.627 604.6L598.633 605.547C604.7 611.221 610.735 616.944 616.865 622.551C623.651 628.736 630.556 634.778 637.381 640.912C646.721 649.293 656.034 657.71 665.321 666.163C673.822 673.889 682.26 681.692 690.77 689.41C701.946 699.575 713.241 709.657 724.441 719.839C733.222 727.834 741.931 735.963 750.744 743.95C759.557 751.936 768.307 759.579 776.984 767.465C785.661 775.351 794.402 783.271 802.96 791.349C804.469 792.774 806.432 793.696 807.694 795.414C807.901 795.709 808.083 796.023 808.236 796.353V796.353Z" fill="#EC1F38"/>
<path d="M1122.74 776.214C1115.45 774.689 1108.48 771.923 1101.41 769.61C1047.38 751.961 993.367 734.253 939.361 716.487C938.377 716.106 937.412 715.669 936.472 715.18C936.49 714.935 936.535 714.693 936.607 714.459C937.078 712.825 938.675 712.255 939.888 711.467C963.645 695.913 987.274 680.166 1011 664.537C1030.45 651.757 1049.84 638.867 1069.27 626.079C1070.04 625.579 1070.84 625.128 1071.67 624.73C1073.26 624.012 1074.81 623.195 1076.31 622.283L1078.71 622.224C1078.8 622.601 1078.88 622.987 1078.98 623.364C1081.96 636.052 1086 648.421 1089.6 660.925C1100.51 698.95 1111.48 736.958 1122.53 774.949C1122.56 775.061 1122.58 775.176 1122.6 775.292C1122.69 775.586 1122.7 775.921 1122.74 776.214Z" fill="#F69922"/>
<path d="M299.558 595.13C299.207 637.401 298.816 679.675 298.385 721.951C298.249 733.935 298.169 745.936 297.97 757.928C298.036 759.398 297.923 760.871 297.634 762.311C297.441 763.049 297.104 763.737 296.645 764.331L295.695 765.06C290.905 757.518 283.505 752.774 277.334 746.707C270.661 740.128 263.652 733.918 256.795 727.549C256.651 727.231 256.491 726.912 256.332 726.611C253.609 721.582 248.62 718.909 244.828 715.012C239.169 709.196 232.918 704.009 226.963 698.511C215.835 688.237 204.539 678.155 193.675 667.579C185.245 659.366 176.113 651.983 168.202 643.142L168.401 643.058C181.408 637.471 194.412 631.884 207.413 626.297L293.731 589.306C293.954 589.205 294.106 588.929 294.298 588.744H294.609C295.305 588.701 296 588.83 296.64 589.121C297.279 589.412 297.844 589.857 298.289 590.42C298.525 590.692 298.729 590.993 298.896 591.317C299.423 592.508 299.651 593.82 299.558 595.13Z" fill="#EC1F38"/>
<path d="M421.024 647.918C406.008 661.738 390.953 675.498 376.001 689.385C365.296 699.324 354.735 709.422 344.07 719.445C342.011 721.39 339.895 723.275 337.812 725.203C337.117 725.84 337.013 726.292 337.325 726.602C337.631 726.823 337.985 726.959 338.355 726.996C332.056 730.524 327.506 736.29 322.149 741.017C313.528 748.634 305.138 756.545 296.605 764.331C296.605 763.937 296.605 763.551 296.605 763.158C297.137 705.796 297.669 648.432 298.201 591.066C298.201 590.848 298.201 590.63 298.201 590.412C303.214 591.367 307.573 594.116 312.179 596.144C338.309 607.625 364.386 619.204 390.41 630.881C400.405 635.331 410.303 640.024 420.346 644.34C423.283 645.53 422.645 646.427 421.024 647.918Z" fill="#ED4456"/>
<path d="M543.695 694.975C541.843 695.888 538.299 694.053 537.772 697.363C537.72 697.726 537.699 698.094 537.708 698.461C535.676 699.224 533.516 699.541 531.362 699.391C531.06 699.128 530.737 698.892 530.396 698.687C529.82 698.261 529.119 698.065 528.418 698.134C527.717 698.203 527.062 698.533 526.572 699.064C526.273 699.385 526.006 699.735 525.774 700.112C521.719 700.162 517.959 702.333 513.84 701.905C513.54 701.645 513.22 701.412 512.882 701.21C512.307 700.779 511.604 700.579 510.901 700.646C510.197 700.714 509.541 701.045 509.05 701.578C508.749 701.897 508.481 702.248 508.252 702.626C504.189 702.693 500.413 704.872 496.278 704.361C495.963 704.041 495.615 703.76 495.24 703.523C494.678 703.148 494.01 702.991 493.35 703.078C492.69 703.165 492.079 703.491 491.624 704C491.284 704.333 490.974 704.697 490.698 705.09C484.184 706.942 477.438 707.327 470.797 708.333C449.962 711.476 429.079 714.291 408.212 717.208C386.786 720.208 365.355 723.189 343.918 726.15C343.918 725.831 343.918 725.521 343.958 725.211C344.134 722.638 344.964 720.535 347.95 719.99C348.148 719.959 348.337 719.885 348.507 719.772C348.676 719.66 348.82 719.511 348.932 719.336C350.991 714.308 357.266 713.696 359.229 708.442C360.028 706.347 362.734 706.858 364.131 705.19C368.186 700.346 373.71 696.902 377.526 692.134C380.551 688.362 384.511 685.823 387.712 682.488C390.474 679.613 393.994 676.621 397.14 673.806C401.011 670.353 405.729 667.638 408.459 662.861C409.712 660.673 412.794 661.126 413.752 658.847C415.612 654.397 420.832 653.693 422.956 649.1C423.81 647.248 427.801 645.748 431.473 647.055C447.439 652.922 462.606 661 478.412 667.227C489.333 671.518 500.397 675.398 511.07 680.359C512.794 681.197 514.957 681.063 516.921 681.105C519.875 681.172 520.665 684.457 523.451 685.295C529.717 687.172 535.705 690.097 541.811 692.611C542.299 692.79 542.732 693.104 543.063 693.52C543.395 693.937 543.613 694.439 543.695 694.975V694.975Z" fill="#D81E44"/>
<path d="M1076.36 622.316C1075.49 622.962 1074.62 623.607 1073.74 624.235C1064.9 630.605 1055.63 636.286 1046.59 642.287C1010.67 666.043 974.714 689.768 938.739 713.462C938.212 713.814 937.717 714.216 937.214 714.61C936.983 714.803 936.751 714.995 936.512 715.18L934.596 715.037C934.125 715.111 933.65 715.139 933.175 715.121C930.564 715.121 928.146 713.931 925.719 713.127C903.575 705.836 881.454 698.461 859.262 691.337C857.905 690.902 856.444 690.583 855.558 689.209V689.159C855.533 689.101 855.512 689.043 855.494 688.983C855.44 688.81 855.413 688.628 855.415 688.446C869.121 684.256 882.819 679.999 896.55 675.876C918.045 669.406 939.553 662.981 961.075 656.601C989.334 648.176 1017.6 639.767 1045.86 631.376C1056 628.331 1066.17 625.311 1076.36 622.316Z" fill="#18AAB5"/>
<path d="M934.612 715.037C925.83 721.742 916.307 727.18 907.079 733.139C876.617 752.827 846.12 772.454 815.588 792.02C814.785 792.488 813.959 792.913 813.114 793.294C813.226 792.891 813.345 792.456 813.473 792.104C816.163 783.22 820.163 774.882 823.499 766.267C830.532 748.115 837.868 730.08 845.053 712.004C847.823 705.081 850.721 698.218 853.515 691.304C853.938 690.24 854.177 689.15 855.542 689.142C866.191 691.891 876.505 695.779 886.97 699.198C902.609 704.294 918.199 709.565 933.813 714.777L934.612 715.037Z" fill="#DB3626"/>
<path d="M438.882 742.843C434.148 768.404 429.582 793.964 424.944 819.575C424.753 820.304 424.527 821.023 424.265 821.728L335.034 764.582L370.892 755.841C392.597 750.553 414.311 745.316 435.992 739.919C439.121 739.106 439.488 739.642 438.882 742.843Z" fill="#E81B3D"/>
<path d="M1246.28 752.85C1243.51 761.138 1240.97 768.772 1238.36 776.466C1233.17 791.793 1227.9 807.104 1222.76 822.449C1221.96 824.712 1221.58 825.801 1219.09 824.041C1199.14 809.962 1179.13 796.017 1159.14 782.022C1158.54 781.502 1157.96 780.942 1157.43 780.346L1246.28 752.85Z" fill="#71C8CD"/>
<path d="M1010.06 766.242C1003.02 784.109 996.127 802.034 989.174 819.943C989.086 820.161 988.807 820.304 988.192 820.873C973.743 796.57 959.454 772.552 944.702 747.838L988.431 758.322L1008.2 763.032C1009.89 763.426 1011.03 763.786 1010.06 766.242Z" fill="#EE5A2F"/>
<path d="M886.883 796.244C883.838 802.222 880.797 808.205 877.758 814.194C870.574 828.441 863.277 842.688 856.125 856.935C854.888 859.407 854.241 859.725 852.557 857.219C843.241 843.325 833.797 829.564 824.353 815.728C823.276 814.161 822.485 813.063 825.088 812.376C845.492 806.923 865.888 801.437 886.276 795.917C886.372 795.883 886.507 796.026 886.883 796.244Z" fill="#17ACB6"/>
<path d="M727.059 799.453C720.298 822.164 713.648 844.917 706.959 867.653C706.704 868.2 706.408 868.724 706.073 869.22C701.81 836.989 697.635 805.37 693.356 773.013C700.174 777.79 706.456 782.173 712.714 786.581C717.017 789.615 721.288 792.69 725.583 795.732C726.86 796.646 727.642 797.467 727.059 799.453Z" fill="#F4987E"/>
<path d="M1327.36 793.185L1291.11 790.537C1295.11 777.823 1298.99 765.596 1303.09 752.548C1311.31 766.367 1319.12 779.416 1327.36 793.185Z" fill="#B73192"/>
<path d="M537.756 818.443C533.717 823.589 529.685 828.734 525.542 833.788C524.808 834.685 523.595 837.056 522.405 834.333C518.414 825.265 514.694 816.113 510.591 806.342C519.292 808.018 527.355 809.392 535.297 811.043C542.338 812.46 542.33 812.627 537.756 818.443Z" fill="#F8B8BE"/>
<path d="M1463.8 856.876L1427.61 854.278C1434.05 848.303 1439.79 843.023 1445.46 837.685C1447.01 836.227 1447.58 837.81 1448.25 838.598C1453.23 844.305 1458.14 850.172 1463.8 856.876Z" fill="#2A7A8A"/>
<path d="M1236.13 695.972C1226.5 704.059 1216.17 711.157 1206.16 718.666C1180.68 737.757 1155.16 756.8 1129.61 775.795C1127.62 777.279 1125.73 778.913 1123.42 776.399L1124.05 775.946C1132.77 769.627 1141.45 763.292 1150.19 757.006C1177.33 737.452 1204.47 717.898 1231.61 698.343C1232.51 697.529 1233.49 696.818 1234.54 696.223C1235.04 696.007 1235.59 695.921 1236.13 695.972Z" fill="#1FADB7"/>
<path d="M1074.76 796.42C1070.2 804.758 1065.91 812.569 1061.24 821.108C1057.49 814.655 1054.17 808.973 1050.86 803.275C1049.52 800.953 1049.94 799.99 1052.77 799.663C1059.85 798.841 1066.86 797.618 1074.76 796.42Z" fill="#A6E3EE"/>
<path d="M635.848 763.727L618.334 776.298C616.738 768.479 615.197 761.062 613.545 752.9L635.848 763.727Z" fill="#18ADB7"/>
<path d="M531.362 699.391C529.566 700.296 527.65 700.17 525.774 700.112C525.754 699.78 525.754 699.446 525.774 699.114C525.774 698.792 525.838 698.472 525.96 698.176C526.083 697.88 526.262 697.614 526.486 697.393C526.711 697.172 526.976 697.002 527.265 696.893C527.554 696.784 527.862 696.739 528.169 696.759C529.71 696.676 530.803 697.12 531.194 698.503C531.28 698.792 531.336 699.089 531.362 699.391V699.391Z" fill="#D81E44"/>
<path d="M513.808 701.905C512.012 702.81 510.096 702.684 508.22 702.626C508.195 702.294 508.195 701.96 508.22 701.628C508.218 701.305 508.28 700.985 508.402 700.687C508.523 700.39 508.702 700.123 508.927 699.902C509.152 699.68 509.418 699.51 509.708 699.402C509.999 699.294 510.307 699.25 510.615 699.274C512.155 699.19 513.249 699.626 513.64 701.017C513.725 701.306 513.782 701.604 513.808 701.905V701.905Z" fill="#D81E44"/>
<path d="M496.214 704.352C494.45 705.383 492.526 705.19 490.626 705.123C490.605 704.794 490.605 704.463 490.626 704.134C490.624 703.811 490.686 703.49 490.807 703.193C490.929 702.896 491.108 702.628 491.333 702.407C491.558 702.186 491.824 702.016 492.114 701.908C492.405 701.8 492.713 701.756 493.021 701.779C494.489 701.695 495.615 702.056 496.022 703.38C496.128 703.693 496.192 704.02 496.214 704.352V704.352Z" fill="#D81E44"/>
<path d="M1422.6 562.656C1422.65 562.371 1422.69 562.095 1422.73 561.818C1423.53 560.142 1425.22 559.865 1426.73 559.455C1444.61 554.728 1462.45 549.842 1480.31 544.998C1482.06 544.521 1483.89 543.683 1485.64 545.133C1486.96 558.617 1488.31 572.101 1489.57 585.602C1490.48 595.239 1491.17 604.877 1492.11 614.548C1493.05 624.604 1494.13 634.661 1495.11 644.717C1495.74 651.329 1496.26 657.95 1496.89 664.562C1497.88 675.029 1498.94 685.513 1499.92 695.947C1500.81 705.316 1501.59 714.694 1502.47 724.055C1503.46 734.522 1504.53 745.006 1505.52 755.439C1506.39 764.809 1507.21 774.178 1508.05 783.556C1508.32 786.447 1508.59 789.338 1508.85 792.229V795.531L1508.13 795.749C1505.99 790.067 1503.83 784.394 1501.74 778.695C1488.5 742.637 1475.28 706.573 1462.07 670.504C1449.38 635.719 1436.74 600.91 1424.15 566.075C1423.75 564.868 1423.16 563.779 1422.6 562.656Z" fill="#178DA7"/>
<path d="M1485.66 545.124C1475.88 546.892 1466.46 550.152 1456.86 552.666C1445.47 555.667 1434.11 558.784 1422.73 561.843C1422.68 561.608 1422.63 561.374 1422.57 561.147C1422.76 557.577 1425.17 555.122 1426.86 552.415C1441.31 529.352 1455.49 506.088 1470.06 483.092C1471.89 480.193 1473.47 477.109 1475.41 474.284C1476.21 473.153 1476.57 471.318 1478.51 471.603C1479.31 479.983 1480.11 488.363 1480.96 496.744C1481.94 506.482 1483 516.212 1483.99 525.941C1484.61 532.126 1485.16 538.311 1485.75 544.487C1485.74 544.702 1485.71 544.915 1485.66 545.124Z" fill="#9C62A7"/>
<path d="M249.642 519.212C251.717 518.374 251.334 516.153 251.741 514.544C257.385 492.311 263.005 470.077 268.449 447.785C273.726 426.164 278.771 404.475 283.944 382.829C287.419 368.303 290.931 353.777 294.481 339.251C294.848 337.759 294.777 335.664 296.724 335.161C298.672 334.658 298.84 336.837 299.917 337.776C303.909 341.203 308.004 344.48 311.892 347.983C316.593 352.173 321.112 356.615 325.79 360.855C330.986 365.574 336.287 370.158 341.516 374.834C348.934 381.471 356.334 388.125 363.716 394.796C371.699 402.026 379.681 409.289 387.664 416.585C391.655 420.273 391.655 420.423 387.704 424.052C387.009 424.689 386.107 425.083 386.107 426.256C385.061 426.785 384.216 427.672 383.713 428.77C382.116 430.203 380.152 431.092 378.923 432.96C378.561 433.109 378.232 433.334 377.957 433.623C377.682 433.911 377.468 434.256 377.326 434.637C375.586 435.835 374.213 437.511 372.537 438.827C371.484 439.346 370.637 440.235 370.142 441.341C368.545 442.774 366.582 443.662 365.352 445.531C364.989 445.678 364.66 445.903 364.385 446.192C364.11 446.48 363.896 446.826 363.756 447.207C362.159 448.64 360.195 449.537 358.966 451.397C358.603 451.545 358.274 451.77 357.999 452.059C357.724 452.347 357.51 452.693 357.369 453.074C355.629 454.28 354.248 455.948 352.58 457.264C351.53 457.788 350.684 458.676 350.185 459.778C348.588 461.211 346.625 462.108 345.395 463.968C345.032 464.114 344.702 464.338 344.426 464.627C344.151 464.916 343.937 465.262 343.799 465.644C342.051 466.843 340.677 468.519 339.009 469.834C337.962 470.362 337.117 471.249 336.614 472.349C335.018 473.782 333.054 474.67 331.825 476.539C331.461 476.684 331.131 476.909 330.856 477.198C330.581 477.486 330.367 477.833 330.228 478.215C328.631 479.639 326.668 480.536 325.438 482.405C325.075 482.551 324.745 482.775 324.469 483.064C324.194 483.353 323.98 483.699 323.842 484.081C322.094 485.288 320.721 486.956 319.052 488.271C318.002 488.795 317.156 489.683 316.657 490.785C315.061 492.21 313.097 493.107 311.868 494.976C311.505 495.123 311.176 495.348 310.901 495.637C310.626 495.925 310.411 496.271 310.271 496.652C308.675 498.085 306.711 498.973 305.481 500.842C302.113 504.873 297.443 507.437 294.306 511.736C292.062 511.493 290.53 513.052 289.101 514.368C280.886 521.986 272.808 529.763 264.626 537.414C258.128 543.498 251.55 549.49 244.996 555.516C244.429 556.035 243.87 557.016 243.024 556.454C242.178 555.893 242.529 554.778 242.753 553.806C244.908 544.814 247.111 535.839 249.139 526.821C249.57 524.927 250.536 522.983 249.586 520.955C249.642 520.326 249.642 519.765 249.642 519.212Z" fill="#EC1C49"/>
<path d="M1503.27 432.969C1505.19 427.052 1509.18 422.409 1512.32 417.289C1527.31 392.885 1542.57 368.683 1557.72 344.379C1559.89 340.893 1561.91 337.298 1564.11 333.854C1564.91 332.672 1565.3 330.929 1567.11 330.82C1577.22 348.804 1587.33 366.786 1597.44 384.765C1598.12 385.955 1598.91 387.069 1599.1 388.494C1585.31 397.846 1571.53 407.205 1557.75 416.568C1547.64 423.451 1537.54 430.346 1527.46 437.251C1526.88 437.558 1526.27 437.8 1525.64 437.972C1518.39 438.332 1511.58 435.835 1504.61 434.435C1503.96 434.293 1503.55 433.664 1503.27 432.969Z" fill="#B0268F"/>
<path d="M1478.51 471.569C1469.13 486.52 1459.75 501.476 1450.36 516.438C1441.07 531.316 1431.81 546.208 1422.57 561.114C1419.13 563.628 1415.72 566.142 1412.27 568.656L1338.9 621.453C1322.52 633.23 1306.16 645.013 1289.8 656.802C1288.93 657.422 1288.2 658.302 1287.02 658.277C1285.81 649.486 1283.11 641.055 1281.04 632.482C1275.78 610.693 1270.18 589.063 1264.74 567.366C1260.14 549.013 1255.53 530.657 1250.94 512.298C1250.67 511.234 1250.35 510.438 1250.94 509.206C1251.53 507.974 1250.02 508.653 1249.52 508.368C1247.7 506.692 1247.58 504.177 1247.12 501.99C1246.12 497.314 1244.41 492.822 1243.93 488.012C1243.99 487.373 1244.21 486.763 1244.57 486.244C1244.93 485.726 1245.41 485.317 1245.97 485.062C1253.95 483.335 1262.1 483.495 1270.16 482.899C1285.78 481.743 1301.42 480.796 1317.05 479.74C1327.25 479.045 1337.46 478.441 1347.66 477.796C1358.93 477.081 1370.19 476.338 1381.45 475.567C1391.25 474.896 1401.05 474.276 1410.86 473.639C1422.38 472.885 1433.91 472.122 1445.44 471.351C1454.84 470.706 1464.26 470.262 1473.66 469.482C1475.35 469.34 1477.14 469.273 1478.55 470.681C1478.55 470.924 1478.53 471.242 1478.51 471.569Z" fill="#0DAAC0"/>
<path d="M1478.57 470.597C1463.52 471.435 1448.46 472.089 1433.43 473.245C1420.91 474.209 1408.39 474.921 1395.86 475.759C1378.6 476.949 1361.32 478.039 1344.05 479.112C1331.53 479.95 1319 480.653 1306.48 481.559C1289.21 482.816 1271.96 484.073 1254.66 484.969C1251.66 485.129 1248.64 485.715 1245.6 485.682C1245.6 483 1247.94 482.547 1249.46 481.492C1278.59 461.094 1308.01 441.148 1337.2 420.834C1343.17 416.644 1349.3 412.78 1355.22 408.548C1356.32 407.761 1357.39 406.923 1358.82 406.931L1360.68 406.034C1371.6 408.062 1382.52 410.023 1393.41 412.135C1420.27 417.348 1447.12 422.597 1473.96 427.882C1482.91 429.633 1491.86 431.318 1500.81 433.069C1501.16 433.136 1501.44 433.53 1501.76 433.773C1502.16 435.659 1500.97 436.975 1500.12 438.299C1494.29 447.618 1488.53 456.979 1482.71 466.298C1482.06 467.345 1481.43 468.435 1480.2 468.879L1478.57 470.597Z" fill="#118BA0"/>
<path d="M1480.19 468.921L1501.75 433.815C1502.05 433.841 1502.35 433.777 1502.62 433.628C1502.89 433.48 1503.11 433.254 1503.26 432.977C1510.02 434.368 1516.76 435.776 1523.52 437.126C1524.32 437.285 1525.12 437.218 1525.63 437.964C1532.29 439.355 1538.94 440.813 1545.59 442.154C1565.23 446.051 1584.86 450.124 1604.56 453.669C1614.41 455.437 1624.1 458.186 1634.09 458.931C1633.52 460.264 1632.5 460.608 1631.16 460.608C1626.8 460.608 1622.45 460.934 1618.1 461.303C1607.03 462.242 1595.9 462.309 1584.82 463.164C1571.91 464.169 1558.98 464.882 1546.05 465.728C1533.4 466.566 1520.75 467.479 1508.09 468.242C1500.31 468.703 1492.55 469.541 1484.76 469.792C1483.22 469.834 1481.6 469.985 1480.19 468.921Z" fill="#A93794"/>
<path d="M1244.72 488.221C1246.31 494.925 1247.91 501.613 1249.51 508.284C1238.33 515.541 1227.16 522.757 1216.08 530.073C1186.65 549.398 1157.24 568.746 1127.84 588.116C1112.47 598.248 1097.09 608.363 1081.85 618.721C1078.87 620.749 1078.05 620.154 1077.13 616.911C1068.89 587.859 1060.59 558.854 1052.22 529.897C1046.59 510.345 1040.85 490.827 1035.17 471.284C1031.89 459.996 1028.66 448.657 1025.4 437.394L1029.21 437.93C1034.92 437.318 1040.22 439.506 1045.64 440.712C1083.84 449.277 1122.05 457.825 1160.27 466.356C1186.77 472.332 1213.32 478.089 1239.79 484.215C1242.12 484.785 1244.19 485.388 1244.72 488.221Z" fill="#0DB0CF"/>
<path d="M372.529 438.818C372.958 437.774 373.615 436.851 374.447 436.123C375.279 435.395 376.263 434.883 377.318 434.628C376.033 436.422 374.924 438.425 372.529 438.818Z" fill="#EB1C47"/>
<path d="M378.915 432.952C379.426 430.195 381.621 429.6 383.705 428.762C382.621 430.701 380.927 432.183 378.915 432.952V432.952Z" fill="#EB1C47"/>
<path d="M352.58 457.239C353.009 456.194 353.666 455.271 354.498 454.543C355.33 453.815 356.314 453.303 357.369 453.048C356.084 454.842 354.967 456.845 352.58 457.239Z" fill="#EB1C47"/>
<path d="M365.344 445.514C365.863 442.757 368.05 442.12 370.134 441.324C369.049 443.262 367.356 444.744 365.344 445.514V445.514Z" fill="#EB1C47"/>
<path d="M339.017 469.801C339.444 468.755 340.1 467.83 340.933 467.102C341.765 466.374 342.75 465.863 343.807 465.611C342.514 467.404 341.404 469.407 339.017 469.801Z" fill="#EB1C47"/>
<path d="M305.497 500.783C306.008 498.026 308.204 497.431 310.287 496.593C309.203 498.532 307.51 500.014 305.497 500.783V500.783Z" fill="#EB1C47"/>
<path d="M311.884 494.925C312.395 492.168 314.59 491.523 316.673 490.735C315.59 492.674 313.896 494.156 311.884 494.925V494.925Z" fill="#EB1C47"/>
<path d="M319.06 488.229C319.49 487.186 320.147 486.262 320.979 485.535C321.811 484.807 322.794 484.294 323.85 484.039C322.565 485.824 321.455 487.836 319.06 488.229Z" fill="#EB1C47"/>
<path d="M325.446 482.363C325.957 479.606 328.153 478.961 330.236 478.173C329.149 480.109 327.457 481.59 325.446 482.363V482.363Z" fill="#EB1C47"/>
<path d="M331.833 476.505C332.343 473.74 334.539 473.103 336.622 472.315C335.536 474.251 333.843 475.732 331.833 476.505V476.505Z" fill="#EB1C47"/>
<path d="M345.395 463.943C345.906 461.186 348.101 460.541 350.185 459.753C349.097 461.688 347.405 463.169 345.395 463.943Z" fill="#EB1C47"/>
<path d="M358.966 451.381C359.477 448.624 361.672 447.978 363.756 447.191C362.674 449.131 360.979 450.613 358.966 451.381Z" fill="#EB1C47"/>
<path d="M1244.72 488.221C1243.7 486.82 1242.21 485.874 1240.55 485.573C1215.24 479.983 1189.97 474.125 1164.71 468.468C1137.57 462.409 1110.43 456.526 1083.35 450.492C1065.67 446.562 1048.01 442.489 1030.34 438.466C1029.96 438.33 1029.6 438.147 1029.26 437.922C1033.53 434.947 1038.49 436.246 1043.1 435.634C1054.2 434.109 1065.38 433.12 1076.55 432.282C1083.4 431.787 1090.24 431.142 1097.07 430.446C1108.35 429.295 1119.63 428.206 1130.93 427.178C1138.16 426.516 1145.41 426.08 1152.64 425.393C1163.13 424.396 1173.62 423.214 1184.12 422.2C1191.22 421.513 1198.33 421.044 1205.43 420.373C1216.45 419.342 1227.48 418.203 1238.5 417.147C1245.2 416.51 1251.9 415.89 1258.62 415.362C1269.79 414.524 1280.97 413.451 1292.09 412.144C1299.27 411.305 1306.56 410.995 1313.79 410.325C1324.55 409.311 1335.29 407.861 1346.08 407.283C1350.3 407.057 1354.57 405.087 1358.85 406.939C1345.6 416.141 1332.35 425.343 1319.11 434.544C1295.66 450.747 1272.19 466.949 1248.73 483.151C1247.63 483.905 1246.65 484.827 1245.61 485.665L1244.72 488.221Z" fill="#15B7D3"/>
<path d="M0 0H1385L383 900H0V0Z" fill="#1C1C1C"/>
</svg>
