<svg width="146" height="64" viewBox="0 0 146 64" fill="none" xmlns="http://www.w3.org/2000/svg">
<path d="M85.834 15.4L80.308 28H78.526L72.982 15.4H74.926L79.462 25.75L84.034 15.4H85.834ZM95.0901 23.284C95.0901 23.416 95.0781 23.59 95.0541 23.806H87.3141C87.4221 24.646 87.7881 25.324 88.4121 25.84C89.0481 26.344 89.8341 26.596 90.7701 26.596C91.9101 26.596 92.8281 26.212 93.5241 25.444L94.4781 26.56C94.0461 27.064 93.5061 27.448 92.8581 27.712C92.2221 27.976 91.5081 28.108 90.7161 28.108C89.7081 28.108 88.8141 27.904 88.0341 27.496C87.2541 27.076 86.6481 26.494 86.2161 25.75C85.7961 25.006 85.5861 24.166 85.5861 23.23C85.5861 22.306 85.7901 21.472 86.1981 20.728C86.6181 19.984 87.1881 19.408 87.9081 19C88.6401 18.58 89.4621 18.37 90.3741 18.37C91.2861 18.37 92.0961 18.58 92.8041 19C93.5241 19.408 94.0821 19.984 94.4781 20.728C94.8861 21.472 95.0901 22.324 95.0901 23.284ZM90.3741 19.828C89.5461 19.828 88.8501 20.08 88.2861 20.584C87.7341 21.088 87.4101 21.748 87.3141 22.564H93.4341C93.3381 21.76 93.0081 21.106 92.4441 20.602C91.8921 20.086 91.2021 19.828 90.3741 19.828ZM104.476 26.578V28H96.4837V26.884L102.118 19.882H96.5917V18.46H104.332V19.594L98.6977 26.578H104.476ZM111.882 18.37C113.094 18.37 114.054 18.724 114.762 19.432C115.482 20.128 115.842 21.154 115.842 22.51V28H114.114V22.708C114.114 21.784 113.892 21.088 113.448 20.62C113.004 20.152 112.368 19.918 111.54 19.918C110.604 19.918 109.866 20.194 109.326 20.746C108.786 21.286 108.516 22.066 108.516 23.086V28H106.788V14.644H108.516V19.81C108.876 19.354 109.344 19 109.92 18.748C110.508 18.496 111.162 18.37 111.882 18.37ZM128.093 14.644V28H126.437V26.488C126.053 27.016 125.567 27.418 124.979 27.694C124.391 27.97 123.743 28.108 123.035 28.108C122.111 28.108 121.283 27.904 120.551 27.496C119.819 27.088 119.243 26.518 118.823 25.786C118.415 25.042 118.211 24.19 118.211 23.23C118.211 22.27 118.415 21.424 118.823 20.692C119.243 19.96 119.819 19.39 120.551 18.982C121.283 18.574 122.111 18.37 123.035 18.37C123.719 18.37 124.349 18.502 124.925 18.766C125.501 19.018 125.981 19.396 126.365 19.9V14.644H128.093ZM123.179 26.596C123.779 26.596 124.325 26.458 124.817 26.182C125.309 25.894 125.693 25.498 125.969 24.994C126.245 24.478 126.383 23.89 126.383 23.23C126.383 22.57 126.245 21.988 125.969 21.484C125.693 20.968 125.309 20.572 124.817 20.296C124.325 20.02 123.779 19.882 123.179 19.882C122.567 19.882 122.015 20.02 121.523 20.296C121.043 20.572 120.659 20.968 120.371 21.484C120.095 21.988 119.957 22.57 119.957 23.23C119.957 23.89 120.095 24.478 120.371 24.994C120.659 25.498 121.043 25.894 121.523 26.182C122.015 26.458 122.567 26.596 123.179 26.596ZM139.985 23.284C139.985 23.416 139.973 23.59 139.949 23.806H132.209C132.317 24.646 132.683 25.324 133.307 25.84C133.943 26.344 134.729 26.596 135.665 26.596C136.805 26.596 137.723 26.212 138.419 25.444L139.373 26.56C138.941 27.064 138.401 27.448 137.753 27.712C137.117 27.976 136.403 28.108 135.611 28.108C134.603 28.108 133.709 27.904 132.929 27.496C132.149 27.076 131.543 26.494 131.111 25.75C130.691 25.006 130.481 24.166 130.481 23.23C130.481 22.306 130.685 21.472 131.093 20.728C131.513 19.984 132.083 19.408 132.803 19C133.535 18.58 134.357 18.37 135.269 18.37C136.181 18.37 136.991 18.58 137.699 19C138.419 19.408 138.977 19.984 139.373 20.728C139.781 21.472 139.985 22.324 139.985 23.284ZM135.269 19.828C134.441 19.828 133.745 20.08 133.181 20.584C132.629 21.088 132.305 21.748 132.209 22.564H138.329C138.233 21.76 137.903 21.106 137.339 20.602C136.787 20.086 136.097 19.828 135.269 19.828ZM142.384 14.644H144.112V28H142.384V14.644ZM74.89 37.4H80.2C81.532 37.4 82.714 37.664 83.746 38.192C84.778 38.72 85.576 39.464 86.14 40.424C86.716 41.372 87.004 42.464 87.004 43.7C87.004 44.936 86.716 46.034 86.14 46.994C85.576 47.942 84.778 48.68 83.746 49.208C82.714 49.736 81.532 50 80.2 50H74.89V37.4ZM80.092 48.434C81.112 48.434 82.006 48.236 82.774 47.84C83.554 47.444 84.154 46.892 84.574 46.184C84.994 45.464 85.204 44.636 85.204 43.7C85.204 42.764 84.994 41.942 84.574 41.234C84.154 40.514 83.554 39.956 82.774 39.56C82.006 39.164 81.112 38.966 80.092 38.966H76.69V48.434H80.092ZM98.1311 45.284C98.1311 45.416 98.1191 45.59 98.0951 45.806H90.3551C90.4631 46.646 90.8291 47.324 91.4531 47.84C92.0891 48.344 92.8751 48.596 93.8111 48.596C94.9511 48.596 95.8691 48.212 96.5651 47.444L97.5191 48.56C97.0871 49.064 96.5471 49.448 95.8991 49.712C95.2631 49.976 94.5491 50.108 93.7571 50.108C92.7491 50.108 91.8551 49.904 91.0751 49.496C90.2951 49.076 89.6891 48.494 89.2571 47.75C88.8371 47.006 88.6271 46.166 88.6271 45.23C88.6271 44.306 88.8311 43.472 89.2391 42.728C89.6591 41.984 90.2291 41.408 90.9491 41C91.6811 40.58 92.5031 40.37 93.4151 40.37C94.3271 40.37 95.1371 40.58 95.8451 41C96.5651 41.408 97.1231 41.984 97.5191 42.728C97.9271 43.472 98.1311 44.324 98.1311 45.284ZM93.4151 41.828C92.5871 41.828 91.8911 42.08 91.3271 42.584C90.7751 43.088 90.4511 43.748 90.3551 44.564H96.4751C96.3791 43.76 96.0491 43.106 95.4851 42.602C94.9331 42.086 94.2431 41.828 93.4151 41.828ZM103.267 50.108C102.487 50.108 101.737 50.006 101.017 49.802C100.297 49.586 99.7326 49.316 99.3246 48.992L100.045 47.624C100.465 47.924 100.975 48.164 101.575 48.344C102.175 48.524 102.781 48.614 103.393 48.614C104.905 48.614 105.661 48.182 105.661 47.318C105.661 47.03 105.559 46.802 105.355 46.634C105.151 46.466 104.893 46.346 104.581 46.274C104.281 46.19 103.849 46.1 103.285 46.004C102.517 45.884 101.887 45.746 101.395 45.59C100.915 45.434 100.501 45.17 100.153 44.798C99.8046 44.426 99.6306 43.904 99.6306 43.232C99.6306 42.368 99.9906 41.678 100.711 41.162C101.431 40.634 102.397 40.37 103.609 40.37C104.245 40.37 104.881 40.448 105.517 40.604C106.153 40.76 106.675 40.97 107.083 41.234L106.345 42.602C105.565 42.098 104.647 41.846 103.591 41.846C102.859 41.846 102.301 41.966 101.917 42.206C101.533 42.446 101.341 42.764 101.341 43.16C101.341 43.472 101.449 43.718 101.665 43.898C101.881 44.078 102.145 44.21 102.457 44.294C102.781 44.378 103.231 44.474 103.807 44.582C104.575 44.714 105.193 44.858 105.661 45.014C106.141 45.158 106.549 45.41 106.885 45.77C107.221 46.13 107.389 46.634 107.389 47.282C107.389 48.146 107.017 48.836 106.273 49.352C105.541 49.856 104.539 50.108 103.267 50.108ZM109.548 40.46H111.276V50H109.548V40.46ZM110.412 38.624C110.076 38.624 109.794 38.516 109.566 38.3C109.35 38.084 109.242 37.82 109.242 37.508C109.242 37.196 109.35 36.932 109.566 36.716C109.794 36.488 110.076 36.374 110.412 36.374C110.748 36.374 111.024 36.482 111.24 36.698C111.468 36.902 111.582 37.16 111.582 37.472C111.582 37.796 111.468 38.072 111.24 38.3C111.024 38.516 110.748 38.624 110.412 38.624ZM123.702 40.46V48.704C123.702 50.372 123.288 51.602 122.46 52.394C121.632 53.198 120.396 53.6 118.752 53.6C117.852 53.6 116.994 53.474 116.178 53.222C115.362 52.982 114.702 52.634 114.198 52.178L115.026 50.846C115.47 51.23 116.016 51.53 116.664 51.746C117.324 51.974 118.002 52.088 118.698 52.088C119.814 52.088 120.636 51.824 121.164 51.296C121.704 50.768 121.974 49.964 121.974 48.884V48.128C121.566 48.62 121.062 48.992 120.462 49.244C119.874 49.484 119.232 49.604 118.536 49.604C117.624 49.604 116.796 49.412 116.052 49.028C115.32 48.632 114.744 48.086 114.324 47.39C113.904 46.682 113.694 45.878 113.694 44.978C113.694 44.078 113.904 43.28 114.324 42.584C114.744 41.876 115.32 41.33 116.052 40.946C116.796 40.562 117.624 40.37 118.536 40.37C119.256 40.37 119.922 40.502 120.534 40.766C121.158 41.03 121.668 41.42 122.064 41.936V40.46H123.702ZM118.734 48.092C119.358 48.092 119.916 47.96 120.408 47.696C120.912 47.432 121.302 47.066 121.578 46.598C121.866 46.118 122.01 45.578 122.01 44.978C122.01 44.054 121.704 43.31 121.092 42.746C120.48 42.17 119.694 41.882 118.734 41.882C117.762 41.882 116.97 42.17 116.358 42.746C115.746 43.31 115.44 44.054 115.44 44.978C115.44 45.578 115.578 46.118 115.854 46.598C116.142 47.066 116.532 47.432 117.024 47.696C117.528 47.96 118.098 48.092 118.734 48.092ZM132.097 40.37C133.309 40.37 134.269 40.724 134.977 41.432C135.697 42.128 136.057 43.154 136.057 44.51V50H134.329V44.708C134.329 43.784 134.107 43.088 133.663 42.62C133.219 42.152 132.583 41.918 131.755 41.918C130.819 41.918 130.081 42.194 129.541 42.746C129.001 43.286 128.731 44.066 128.731 45.086V50H127.003V40.46H128.659V41.9C129.007 41.408 129.475 41.03 130.063 40.766C130.663 40.502 131.341 40.37 132.097 40.37Z" fill="white"/>
<path d="M32 64H0V12.8L32 64ZM32 64H64V12.8L32 64ZM0 0L32 51.2L64 0H0Z" fill="white"/>
</svg>
